<?xml version="1.0" encoding="UTF-8" standalone="no"?>
<svg width="424px" height="52px" viewBox="0 0 424 52" version="1.1" xmlns="http://www.w3.org/2000/svg" xmlns:xlink="http://www.w3.org/1999/xlink" xmlns:sketch="http://www.bohemiancoding.com/sketch/ns">
    <!-- Generator: Sketch 3.3.1 (12002) - http://www.bohemiancoding.com/sketch -->
    <title>lamaroomlustra</title>
    <desc>Created with Sketch.</desc>
    <defs></defs>
    <g id="Welcome" stroke="none" stroke-width="1" fill="none" fill-rule="evenodd" sketch:type="MSPage">
        <g id="Desktop-HD" sketch:type="MSArtboardGroup" transform="translate(-3.000000, 0.000000)">
            <g id="lamaroomlustra" sketch:type="MSLayerGroup">
                <g id="Layer_5_xA0_Image_1_"></g>
                <g id="Layer_4_xA0_Image_1_"></g>
                <g id="Layer_2_xA0_Image_1_"></g>
                <g id="кальянный_клуб"></g>
                <g id="LAMA_ROOM" transform="translate(4.000000, 0.000000)" stroke="#000000" fill="#FFFFFF" sketch:type="MSShapeGroup">
                    <g id="Group">
                        <path d="M0,2.2 L16,2.2 L16,37.6 L29.2,37.6 L29.2,50.2 L0,50.2 L0,2.2 L0,2.2 Z" id="Shape"></path>
                        <path d="M52.1,2.2 L63.6,2.2 L81.8,50.2 L66.7,50.2 L65.1,45.9 L50.6,45.9 L49,50.2 L33.9,50.2 L52.1,2.2 L52.1,2.2 Z M61.1,35.3 L57.9,26.9 L54.7,35.3 L61.1,35.3 L61.1,35.3 Z" id="Shape"></path>
                        <path d="M86.5,2.2 L99.2,2.2 L111.7,20.6 L124.2,2.2 L136.9,2.2 L136.9,50.2 L121.6,50.2 L121.6,32.9 L111.8,47.3 L101.9,32.9 L101.9,50.2 L86.5,50.2 L86.5,2.2 L86.5,2.2 Z" id="Shape"></path>
                        <path d="M159.8,2.2 L171.3,2.2 L189.5,50.2 L174.4,50.2 L172.8,45.9 L158.3,45.9 L156.7,50.2 L141.6,50.2 L159.8,2.2 L159.8,2.2 Z M168.8,35.3 L165.6,26.9 L162.4,35.3 L168.8,35.3 L168.8,35.3 Z" id="Shape"></path>
                        <path d="M212.2,2.2 L228.8,2.2 C231.9,2.2 234.7,2.6 237.3,3.4 C239.9,4.2 242.2,5.4 244.1,7 C246,8.6 247.5,10.5 248.6,12.9 C249.7,15.2 250.2,17.9 250.2,20.9 C250.2,23.3 249.9,25.3 249.2,27 C248.5,28.7 247.8,30.1 247,31.2 C246,32.4 245,33.5 243.8,34.4 L252.8,50.2 L234.8,50.2 L227.5,38 L227.5,50.2 L212.2,50.2 L212.2,2.2 L212.2,2.2 Z M227.5,25.8 L228.3,25.8 C230.1,25.8 231.7,25.4 232.9,24.6 C234.2,23.8 234.8,22.4 234.8,20.5 C234.8,18.6 234.2,17.2 232.9,16.4 C231.6,15.6 230.1,15.2 228.3,15.2 L227.5,15.2 L227.5,25.8 L227.5,25.8 Z" id="Shape"></path>
                        <path d="M256.3,26.2 C256.3,22.7 257,19.5 258.3,16.4 C259.6,13.3 261.4,10.7 263.7,8.4 C266,6.1 268.7,4.3 271.7,3 C274.8,1.7 278,1 281.5,1 C285,1 288.2,1.7 291.3,3 C294.4,4.3 297,6.1 299.3,8.4 C301.6,10.7 303.4,13.4 304.7,16.4 C306,19.5 306.7,22.7 306.7,26.2 C306.7,29.7 306,32.9 304.7,36 C303.4,39.1 301.6,41.7 299.3,44 C297,46.3 294.3,48.1 291.3,49.4 C288.2,50.7 285,51.4 281.5,51.4 C278,51.4 274.8,50.7 271.7,49.4 C268.6,48.1 266,46.3 263.7,44 C261.4,41.7 259.6,39 258.3,36 C257,32.9 256.3,29.7 256.3,26.2 L256.3,26.2 Z M271.4,26.2 C271.4,27.6 271.7,28.9 272.2,30.1 C272.7,31.3 273.4,32.4 274.4,33.3 C275.3,34.2 276.4,34.9 277.6,35.5 C278.8,36 280.1,36.3 281.5,36.3 C282.9,36.3 284.2,36 285.4,35.5 C286.6,35 287.7,34.3 288.6,33.3 C289.5,32.4 290.2,31.3 290.8,30.1 C291.3,28.9 291.6,27.6 291.6,26.2 C291.6,24.8 291.3,23.5 290.8,22.3 C290.3,21.1 289.6,20 288.6,19.1 C287.7,18.2 286.6,17.5 285.4,16.9 C284.2,16.4 282.9,16.1 281.5,16.1 C280.1,16.1 278.8,16.4 277.6,16.9 C276.4,17.4 275.3,18.1 274.4,19.1 C273.5,20 272.8,21.1 272.2,22.3 C271.6,23.5 271.4,24.8 271.4,26.2 L271.4,26.2 Z" id="Shape"></path>
                        <path d="M313.2,26.2 C313.2,22.7 313.9,19.5 315.2,16.4 C316.5,13.3 318.3,10.7 320.6,8.4 C322.9,6.1 325.6,4.3 328.6,3 C331.7,1.7 334.9,1 338.4,1 C341.9,1 345.1,1.7 348.2,3 C351.3,4.3 353.9,6.1 356.2,8.4 C358.5,10.7 360.3,13.4 361.6,16.4 C362.9,19.5 363.6,22.7 363.6,26.2 C363.6,29.7 362.9,32.9 361.6,36 C360.3,39.1 358.5,41.7 356.2,44 C353.9,46.3 351.2,48.1 348.2,49.4 C345.1,50.7 341.9,51.4 338.4,51.4 C334.9,51.4 331.7,50.7 328.6,49.4 C325.5,48.1 322.9,46.3 320.6,44 C318.3,41.7 316.5,39 315.2,36 C313.9,32.9 313.2,29.7 313.2,26.2 L313.2,26.2 Z M328.3,26.2 C328.3,27.6 328.6,28.9 329.1,30.1 C329.6,31.3 330.3,32.4 331.3,33.3 C332.2,34.2 333.3,34.9 334.5,35.5 C335.7,36 337,36.3 338.4,36.3 C339.8,36.3 341.1,36 342.3,35.5 C343.5,35 344.6,34.3 345.5,33.3 C346.4,32.4 347.1,31.3 347.7,30.1 C348.2,28.9 348.5,27.6 348.5,26.2 C348.5,24.8 348.2,23.5 347.7,22.3 C347.2,21.1 346.5,20 345.5,19.1 C344.6,18.2 343.5,17.5 342.3,16.9 C341.1,16.4 339.8,16.1 338.4,16.1 C337,16.1 335.7,16.4 334.5,16.9 C333.3,17.4 332.2,18.1 331.3,19.1 C330.4,20 329.7,21.1 329.1,22.3 C328.5,23.5 328.3,24.8 328.3,26.2 L328.3,26.2 Z" id="Shape"></path>
                        <path d="M371.2,2.2 L383.9,2.2 L396.4,20.6 L408.9,2.2 L421.6,2.2 L421.6,50.2 L406.3,50.2 L406.3,32.9 L396.5,47.3 L386.6,32.9 L386.6,50.2 L371.3,50.2 L371.3,2.2 L371.2,2.2 Z" id="Shape"></path>
                    </g>
                </g>
            </g>
        </g>
    </g>
</svg>